<svg width="26" height="26" viewBox="0 0 26 26" fill="none" xmlns="http://www.w3.org/2000/svg">
<g clip-path="url(#clip0_741_52)">
<path d="M12.9554 9.27832C12.4837 9.27824 12.0166 9.37111 11.5807 9.5516C11.1448 9.7321 10.7488 9.99669 10.4152 10.3303C10.0817 10.6638 9.81706 11.0599 9.63656 11.4957C9.45607 11.9316 9.3632 12.3987 9.36328 12.8705C9.3632 13.3422 9.45607 13.8094 9.63656 14.2452C9.81706 14.6811 10.0817 15.0771 10.4152 15.4107C10.7488 15.7443 11.1448 16.0089 11.5807 16.1894C12.0166 16.3699 12.4837 16.4627 12.9554 16.4627C13.4272 16.4627 13.8943 16.3699 14.3302 16.1894C14.7661 16.0089 15.1621 15.7443 15.4957 15.4107C15.8292 15.0771 16.0938 14.6811 16.2743 14.2452C16.4548 13.8094 16.5477 13.3422 16.5476 12.8705C16.5477 12.3987 16.4548 11.9316 16.2743 11.4957C16.0938 11.0599 15.8292 10.6638 15.4957 10.3303C15.1621 9.99669 14.7661 9.7321 14.3302 9.5516C13.8943 9.37111 13.4272 9.27824 12.9554 9.27832ZM12.9554 15.2021C12.4945 15.202 12.0439 15.0652 11.6606 14.809C11.2774 14.5528 10.9787 14.1887 10.8024 13.7628C10.626 13.3369 10.5799 12.8683 10.6698 12.4162C10.7598 11.9641 10.9818 11.5488 11.3078 11.2228C11.6337 10.8968 12.049 10.6748 12.5011 10.5849C12.9532 10.4949 13.4219 10.541 13.8478 10.7174C14.2737 10.8938 14.6378 11.1924 14.8939 11.5757C15.1501 11.9589 15.2869 12.4095 15.287 12.8705C15.2872 13.1767 15.227 13.48 15.1099 13.7629C14.9927 14.0459 14.821 14.303 14.6045 14.5195C14.3879 14.736 14.1308 14.9078 13.8479 15.0249C13.5649 15.142 13.2617 15.2022 12.9554 15.2021Z" fill="#F42A3E"/>
<path d="M15.8396 5.91702C14.5516 5.85694 11.3613 5.85986 10.0722 5.91702C8.93934 5.97011 7.94009 6.24369 7.13451 7.04927C5.78817 8.39561 5.96026 10.2098 5.96026 12.8704C5.96026 15.5934 5.80859 17.3655 7.13451 18.6914C8.48609 20.0424 10.3265 19.8657 12.9556 19.8657C15.6529 19.8657 16.5839 19.8674 17.5377 19.4982C18.8344 18.9948 19.8133 17.8357 19.9089 15.7538C19.9696 14.4652 19.9661 11.2755 19.9089 9.98636C19.7934 7.52877 18.4745 6.03836 15.8396 5.91702ZM17.8783 17.8007C16.9958 18.6833 15.7713 18.6045 12.9387 18.6045C10.022 18.6045 8.85242 18.6477 7.99901 17.7919C7.01609 16.8137 7.19401 15.2428 7.19401 12.861C7.19401 9.63811 6.86326 7.31702 10.0978 7.15136C10.841 7.12511 11.0598 7.11636 12.9305 7.11636L12.9568 7.13386C16.0653 7.13386 18.5043 6.80836 18.6507 10.0424C18.6839 10.7803 18.6915 11.0019 18.6915 12.8698C18.6909 15.7526 18.7458 16.9292 17.8783 17.8007Z" fill="#F42A3E"/>
<path d="M16.69 9.97571C17.1536 9.97571 17.5294 9.59989 17.5294 9.13629C17.5294 8.67269 17.1536 8.29688 16.69 8.29688C16.2264 8.29688 15.8506 8.67269 15.8506 9.13629C15.8506 9.59989 16.2264 9.97571 16.69 9.97571Z" fill="#F42A3E"/>
</g>
<path fill-rule="evenodd" clip-rule="evenodd" d="M22.6136 0.72947H2.91788C1.70926 0.72947 0.72947 1.70926 0.72947 2.91788V22.6136C0.72947 23.8222 1.70926 24.802 2.91788 24.802H22.6136C23.8222 24.802 24.802 23.8222 24.802 22.6136V2.91788C24.802 1.70926 23.8222 0.72947 22.6136 0.72947ZM2.91788 0C1.30638 0 0 1.30638 0 2.91788V22.6136C0 24.2251 1.30638 25.5315 2.91788 25.5315H22.6136C24.2251 25.5315 25.5315 24.2251 25.5315 22.6136V2.91788C25.5315 1.30638 24.2251 0 22.6136 0H2.91788Z" fill="url(#paint0_linear_741_52)"/>
<defs>
<linearGradient id="paint0_linear_741_52" x1="0.964877" y1="1.44732" x2="24.8456" y2="24.8456" gradientUnits="userSpaceOnUse">
<stop stop-color="#F42A3E"/>
<stop offset="1" stop-color="#FF8C49"/>
</linearGradient>
<clipPath id="clip0_741_52">
<rect width="14" height="14" fill="white" transform="translate(5.95312 5.87305)"/>
</clipPath>
</defs>
</svg>
