<svg width="612" height="401" viewBox="0 0 612 401" fill="none" xmlns="http://www.w3.org/2000/svg">
<g clip-path="url(#clip0_924_84)">
<path d="M601.329 94.5399L591.759 140.88L585.599 134.88L575.119 142.35L567.109 132.41L549.149 145.47L533.799 119.8L516.679 129.83L509.889 120.46L488.149 132.71L481.609 118.71L496.849 44.8999L578.549 61.7699L601.329 94.5399Z" fill="#EBEBEB"/>
<path d="M578.552 61.77L601.332 94.54L572.992 88.69L578.552 61.77Z" fill="#DBDBDB"/>
<path d="M589.721 150.15L575.691 218.14L465.641 195.43L479.571 127.97L486.111 141.98L507.861 129.73L514.641 139.09L531.771 129.06L547.111 154.73L565.081 141.67L573.081 151.61L583.571 144.14L589.721 150.15Z" fill="#EBEBEB"/>
<path d="M432.208 142.18L320.058 149.12L311.148 5.15L394.428 0L424.998 25.64L432.208 142.18Z" fill="#EBEBEB"/>
<path d="M394.43 0L425 25.64L396.12 27.43L394.43 0Z" fill="#DBDBDB"/>
<path d="M363.378 96.8699L362.938 93.6199C361.808 86.8899 363.648 79.3599 369.498 71.4899C374.778 64.4899 377.638 59.4899 377.318 53.8099C376.958 47.4099 372.708 43.3699 364.798 43.6899C360.278 43.9247 355.936 45.529 352.348 48.2899L348.898 40.5599C352.898 37.3099 359.898 34.9099 366.548 34.5599C380.978 33.7599 387.998 42.2999 388.548 51.8299C389.028 60.3599 384.608 66.7699 378.988 74.2599C373.828 81.0899 372.138 86.7199 372.868 93.0899L373.178 96.3499L363.378 96.8699ZM361.598 114.58C361.338 109.94 364.288 106.5 368.678 106.26C373.068 106.02 376.268 109.1 376.528 113.75C376.768 118.14 374.078 121.68 369.438 121.94C365.008 122.19 361.808 118.97 361.558 114.58H361.598Z" fill="#DBDBDB"/>
<path d="M82.8628 72.38L71.5828 67.27L70.0128 70.72C69.781 71.2131 69.4192 71.6337 68.9665 71.9367C68.5137 72.2397 67.987 72.4137 67.4428 72.44C66.8229 72.4603 66.205 72.5205 65.5928 72.62C65.0554 72.6998 64.5064 72.6322 64.0045 72.4244C63.5026 72.2166 63.0665 71.8763 62.7428 71.44L60.5328 68.35L50.4628 75.57L52.6728 78.66C52.9802 79.106 53.1611 79.6269 53.1963 80.1674C53.2315 80.708 53.1197 81.2479 52.8728 81.73C52.5877 82.28 52.3307 82.844 52.1028 83.42C51.9047 83.9279 51.5719 84.3723 51.1403 84.7053C50.7086 85.0383 50.1943 85.2473 49.6528 85.31L45.8828 85.68L47.0928 98.01L50.8828 97.63C51.4263 97.5866 51.9714 97.6921 52.4595 97.9353C52.9475 98.1784 53.3601 98.55 53.6528 99.01C53.8128 99.27 53.9828 99.52 54.1628 99.77C54.3428 100.02 54.5228 100.26 54.7128 100.5C55.0579 100.92 55.2798 101.427 55.3539 101.966C55.4281 102.504 55.3515 103.052 55.1328 103.55L53.5528 107.03L64.8428 112.15L66.4128 108.68C66.6468 108.187 67.0106 107.768 67.4652 107.467C67.9198 107.165 68.4479 106.994 68.9928 106.97C69.6057 106.945 70.2167 106.885 70.8228 106.79C71.3602 106.71 71.9091 106.778 72.4111 106.986C72.913 107.193 73.3491 107.534 73.6728 107.97L75.8828 111.06L85.9628 103.84L83.7528 100.75C83.4359 100.308 83.2493 99.7862 83.2139 99.2436C83.1786 98.701 83.296 98.1593 83.5528 97.68C83.8313 97.1332 84.0817 96.5725 84.3028 96C84.4951 95.4884 84.8262 95.0405 85.259 94.7066C85.6918 94.3728 86.2091 94.1662 86.7528 94.11L90.5428 93.73L89.3228 81.4L85.5328 81.77C84.9926 81.8175 84.4499 81.7146 83.9646 81.4728C83.4793 81.231 83.0702 80.8598 82.7828 80.4C82.6128 80.14 82.4428 79.89 82.2628 79.64C82.0828 79.39 81.9028 79.14 81.7128 78.91C81.37 78.485 81.1498 77.9744 81.0757 77.4334C81.0017 76.8924 81.0768 76.3415 81.2928 75.84L82.8628 72.38ZM76.4628 83.79C77.6322 85.4219 78.2914 87.3639 78.357 89.3705C78.4226 91.377 77.8917 93.3579 76.8314 95.0627C75.7712 96.7675 74.2291 98.1196 72.4004 98.9479C70.5716 99.7763 68.5383 100.044 66.5575 99.7164C64.5768 99.3891 62.7376 98.4817 61.2726 97.109C59.8075 95.7364 58.7825 93.9601 58.3271 92.0048C57.8716 90.0495 58.0062 88.0031 58.7139 86.1243C59.4216 84.2456 60.6705 82.6189 62.3028 81.45C64.491 79.883 67.2119 79.2492 69.8673 79.688C72.5227 80.1268 74.8951 81.6023 76.4628 83.79Z" fill="#EBEBEB"/>
<path d="M592.763 235.98L585.243 240.32L586.573 242.62C586.771 242.95 586.87 243.33 586.858 243.715C586.846 244.1 586.722 244.473 586.503 244.79C586.273 245.15 586.053 245.52 585.853 245.91C585.689 246.255 585.429 246.546 585.105 246.748C584.78 246.95 584.405 247.055 584.023 247.05H581.383V255.74H584.043C584.425 255.735 584.8 255.84 585.125 256.042C585.449 256.244 585.709 256.535 585.873 256.88C586.073 257.27 586.293 257.64 586.523 258C586.742 258.317 586.866 258.69 586.878 259.075C586.89 259.46 586.791 259.84 586.593 260.17L585.263 262.47L592.783 266.81L594.123 264.5C594.317 264.172 594.598 263.905 594.936 263.729C595.273 263.552 595.653 263.473 596.033 263.5H597.313C597.693 263.474 598.072 263.554 598.409 263.73C598.746 263.907 599.028 264.173 599.223 264.5L600.563 266.82L608.073 262.48L606.743 260.17C606.554 259.838 606.461 259.46 606.475 259.079C606.489 258.697 606.61 258.327 606.823 258.01C607.053 257.65 607.273 257.27 607.473 256.89C607.637 256.545 607.897 256.254 608.221 256.052C608.545 255.85 608.921 255.745 609.303 255.75H611.963V247.06H609.283C608.901 247.065 608.525 246.96 608.201 246.758C607.877 246.556 607.617 246.265 607.453 245.92C607.253 245.54 607.033 245.16 606.803 244.8C606.59 244.483 606.469 244.113 606.455 243.731C606.441 243.35 606.534 242.972 606.723 242.64L608.053 240.33L600.543 235.99L599.203 238.27C599.009 238.598 598.727 238.865 598.39 239.041C598.053 239.218 597.673 239.297 597.293 239.27H596.653H596.013C595.632 239.296 595.251 239.216 594.913 239.039C594.574 238.863 594.29 238.597 594.093 238.27L592.763 235.98ZM596.653 244.28C598.062 244.278 599.44 244.694 600.612 245.476C601.785 246.257 602.699 247.369 603.239 248.671C603.779 249.972 603.921 251.404 603.647 252.787C603.372 254.169 602.694 255.438 601.697 256.435C600.701 257.431 599.432 258.109 598.049 258.384C596.667 258.658 595.235 258.516 593.934 257.976C592.632 257.436 591.52 256.522 590.739 255.349C589.957 254.177 589.541 252.799 589.543 251.39C589.542 250.455 589.725 249.53 590.081 248.666C590.438 247.802 590.961 247.017 591.622 246.356C592.282 245.695 593.066 245.17 593.93 244.812C594.793 244.454 595.718 244.27 596.653 244.27V244.28Z" fill="#EBEBEB"/>
<path d="M105.681 35.43L98.7913 40.71L100.381 42.82C100.618 43.1206 100.764 43.4831 100.802 43.8642C100.839 44.2453 100.766 44.6291 100.591 44.97C100.4 45.3592 100.233 45.76 100.091 46.17C99.968 46.5311 99.7464 46.8507 99.4514 47.0928C99.1563 47.3348 98.7996 47.4897 98.4213 47.54L95.7812 47.88L96.9013 56.49L99.5413 56.15C99.9256 56.0964 100.317 56.1525 100.671 56.3117C101.025 56.4709 101.327 56.7268 101.541 57.05C101.782 57.3979 102.043 57.7317 102.321 58.05C102.579 58.3333 102.75 58.6846 102.814 59.0622C102.877 59.4398 102.831 59.8277 102.681 60.18L101.681 62.64L109.681 65.97L110.681 63.51C110.83 63.1571 111.075 62.8529 111.388 62.632C111.7 62.4111 112.069 62.2822 112.451 62.26L113.091 62.19L113.721 62.09C114.091 62.0202 114.473 62.0533 114.826 62.1855C115.179 62.3177 115.488 62.5441 115.721 62.84L117.351 64.97L124.241 59.69L122.631 57.58C122.399 57.2752 122.256 56.9115 122.219 56.5299C122.182 56.1483 122.252 55.7639 122.421 55.42C122.611 55.0333 122.778 54.636 122.921 54.23C123.045 53.8688 123.266 53.5492 123.561 53.3072C123.856 53.0651 124.213 52.9103 124.591 52.86L127.231 52.52L126.111 43.91L123.471 44.25C123.088 44.3046 122.697 44.25 122.343 44.0926C121.99 43.9352 121.687 43.6813 121.471 43.36C121.221 43 120.961 42.66 120.681 42.36C120.448 42.0706 120.298 41.7238 120.245 41.3561C120.192 40.9884 120.239 40.6132 120.381 40.27L121.381 37.81L113.381 34.48L112.381 36.94C112.231 37.2915 111.985 37.5944 111.673 37.8151C111.36 38.0357 110.993 38.1655 110.611 38.19L109.971 38.25L109.381 38.27C109.011 38.3397 108.629 38.3067 108.276 38.1745C107.924 38.0422 107.614 37.8159 107.381 37.52L105.681 35.43ZM110.611 43.16C112.004 42.9809 113.419 43.2184 114.677 43.8425C115.935 44.4666 116.981 45.4493 117.681 46.6667C118.381 47.8841 118.705 49.2816 118.612 50.683C118.519 52.0843 118.013 53.4267 117.158 54.5409C116.303 55.655 115.137 56.4909 113.807 56.9432C112.478 57.3955 111.044 57.4438 109.687 57.0822C108.33 56.7205 107.11 55.9651 106.182 54.9111C105.254 53.8571 104.659 52.5519 104.471 51.16C104.346 50.2311 104.406 49.2867 104.648 48.3811C104.889 47.4755 105.307 46.6265 105.878 45.883C106.448 45.1396 107.16 44.5162 107.973 44.0489C108.785 43.5816 109.682 43.2795 110.611 43.16Z" fill="#EBEBEB"/>
<path d="M54.2004 261.05C54.5761 251.383 54.4426 241.703 53.8004 232.05C52.3696 212.117 49.3297 192.333 44.7104 172.89C42.1704 161.95 39.0504 151.19 35.7904 140.44C35.6904 140.11 35.1704 140.2 35.2604 140.54C45.3304 178.44 53.5904 217.54 53.0204 256.94C52.8604 267.94 51.5804 278.79 50.5404 289.75C50.5404 290.04 50.9904 290.16 51.0604 289.86C53.1304 280.45 53.8104 270.63 54.2004 261.05Z" fill="#EBEBEB"/>
<path d="M35.2571 140.51C35.2571 140.51 20.0171 179.21 23.4271 188.27C26.8371 197.33 33.8771 199.27 33.8771 199.27C33.8771 199.27 24.5471 212.59 31.0671 225.08C37.5871 237.57 52.0671 236.98 53.0671 251.14C53.0371 251.21 53.8371 192 35.2571 140.51Z" fill="#EBEBEB"/>
<path d="M51.3776 226.76C51.4023 226.695 51.4023 226.624 51.3776 226.56C49.3774 200.139 44.4198 174.026 36.5976 148.71C36.5976 148.64 36.4476 148.66 36.4676 148.71C39.4876 160.043 42.1543 171.423 44.4676 182.85C42.4188 180.909 39.9157 179.513 37.1876 178.79C37.1876 178.79 37.1076 178.85 37.1876 178.87C40.0536 179.92 42.6304 181.633 44.7076 183.87C45.1476 186.12 45.5876 188.36 45.9976 190.61C42.5876 186.8 37.8676 184.91 33.1376 183.11C33.1269 183.115 33.1178 183.122 33.1114 183.132C33.105 183.142 33.1016 183.153 33.1016 183.165C33.1016 183.177 33.105 183.188 33.1114 183.198C33.1178 183.207 33.1269 183.215 33.1376 183.22C38.0676 185.22 42.9676 187.8 46.3076 192.05C47.4676 198.47 48.4876 204.913 49.3676 211.38C46.9055 208.8 43.7479 206.991 40.2776 206.17C40.1676 206.17 40.1076 206.3 40.2176 206.33C43.7824 207.38 46.965 209.443 49.3776 212.27H49.4376C49.7376 214.537 50.0243 216.813 50.2976 219.1C48.3929 217.488 46.2424 216.192 43.9276 215.26C43.8676 215.26 43.8276 215.33 43.9276 215.35C46.2898 216.373 48.4529 217.805 50.3176 219.58C50.3176 219.58 50.3676 219.58 50.3976 219.58C50.6476 221.75 50.8976 223.92 51.1176 226.09C47.6838 221.939 43.2273 218.754 38.1876 216.85C38.1664 216.85 38.1461 216.858 38.1311 216.873C38.1161 216.888 38.1076 216.909 38.1076 216.93C38.1076 216.951 38.1161 216.971 38.1311 216.986C38.1461 217.001 38.1664 217.01 38.1876 217.01C43.164 219.203 47.5353 222.569 50.9276 226.82C50.965 226.866 51.0154 226.901 51.0724 226.919C51.1294 226.937 51.1904 226.937 51.2476 226.92C51.5776 230.25 51.8776 233.58 52.1176 236.92C52.1176 236.97 52.1976 236.97 52.1976 236.92C51.9376 233.567 51.6643 230.18 51.3776 226.76Z" fill="white"/>
<path d="M39.1341 174.98C36.374 173.262 33.2211 172.278 29.9741 172.12C29.9581 172.12 29.9429 172.126 29.9316 172.138C29.9204 172.149 29.9141 172.164 29.9141 172.18C29.9141 172.196 29.9204 172.211 29.9316 172.223C29.9429 172.234 29.9581 172.24 29.9741 172.24C33.1133 172.835 36.1599 173.844 39.0341 175.24C39.1541 175.27 39.2441 175.06 39.1341 174.98Z" fill="white"/>
<path d="M40.9829 215.95C38.8616 214.733 36.5258 213.935 34.1029 213.6C34.0229 213.6 34.0129 213.71 34.1029 213.73C36.4689 214.205 38.7574 215.006 40.9029 216.11C40.9929 216.16 41.0729 216 40.9829 215.95Z" fill="white"/>
<path d="M94.2813 188.94C87.8342 193.397 81.913 198.57 76.6313 204.36C71.1843 210.491 66.9828 217.624 64.2613 225.36C58.4692 241.478 55.3547 258.436 55.0413 275.56C54.847 285.043 55.7565 294.517 57.7513 303.79C57.7675 303.857 57.809 303.916 57.8671 303.954C57.9253 303.991 57.9958 304.005 58.0639 303.992C58.132 303.98 58.1926 303.941 58.2331 303.885C58.2735 303.828 58.2908 303.759 58.2813 303.69C55.7991 287.326 55.8935 270.675 58.5613 254.34C61.1813 238.34 65.2913 220.92 75.4713 207.91C81.0113 200.82 87.9213 195.25 94.7513 189.49C95.1113 189.17 94.6513 188.68 94.2813 188.94Z" fill="#EBEBEB"/>
<path d="M57.2812 264.02C60.9511 258.084 65.2637 252.571 70.1412 247.58C77.7712 239.95 84.1912 234.53 85.1912 229.49C86.1912 224.45 77.5513 220.73 77.5513 220.73C77.5513 220.73 88.1013 222.63 90.9913 218.2C93.8813 213.77 95.2713 188.11 95.2713 188.11C95.2713 188.11 76.0712 201.82 67.1213 221.04C58.1713 240.26 57.2812 264.02 57.2812 264.02Z" fill="#EBEBEB"/>
<path d="M88.3819 212.18C87.1176 211.992 85.836 211.948 84.5619 212.05C84.4119 212.05 84.4219 212.31 84.5619 212.32C85.8219 212.32 87.0919 212.26 88.3519 212.32C88.3663 212.316 88.3793 212.309 88.3896 212.298C88.3999 212.287 88.4071 212.274 88.4102 212.259C88.4133 212.245 88.4123 212.23 88.4073 212.216C88.4023 212.202 88.3935 212.189 88.3819 212.18Z" fill="white"/>
<path d="M74.5919 237.07C72.5645 237.111 70.5603 237.511 68.6719 238.25C68.6719 238.25 68.6719 238.35 68.6719 238.34C70.6719 237.87 72.6019 237.68 74.5819 237.34C74.6078 237.329 74.6299 237.31 74.6458 237.287C74.6617 237.264 74.6706 237.236 74.6717 237.208C74.6727 237.18 74.6658 237.152 74.6517 237.127C74.6376 237.103 74.6169 237.083 74.5919 237.07Z" fill="white"/>
<path d="M70.4528 228.47C69.611 228.463 68.7705 228.537 67.9427 228.69C67.9274 228.696 67.9142 228.706 67.9049 228.719C67.8956 228.733 67.8906 228.749 67.8906 228.765C67.8906 228.781 67.8956 228.797 67.9049 228.811C67.9142 228.824 67.9274 228.834 67.9427 228.84C68.781 228.889 69.622 228.852 70.4528 228.73C70.4872 228.73 70.5203 228.716 70.5447 228.692C70.5691 228.668 70.5827 228.635 70.5827 228.6C70.5827 228.566 70.5691 228.533 70.5447 228.508C70.5203 228.484 70.4872 228.47 70.4528 228.47Z" fill="white"/>
<path d="M0.987819 216.16C7.23702 218.279 13.2253 221.1 18.8378 224.57C24.6612 228.271 29.7112 233.066 33.7078 238.69C42.1167 250.395 48.555 263.397 52.7678 277.18C55.1173 284.812 56.5671 292.692 57.0878 300.66C57.0768 300.712 57.0485 300.758 57.0076 300.791C56.9666 300.824 56.9155 300.843 56.8628 300.843C56.8101 300.843 56.7589 300.824 56.718 300.791C56.677 300.758 56.6487 300.712 56.6378 300.66C54.8726 286.844 50.9516 273.391 45.0178 260.79C39.1878 248.44 31.8378 235.3 20.5978 227.12C14.4778 222.67 7.59782 219.75 0.737819 216.67C0.377819 216.55 0.627819 216.04 0.987819 216.16Z" fill="#EBEBEB"/>
<path d="M48.29 268.37C43.9455 264.417 39.1803 260.953 34.08 258.04C26.14 253.63 19.69 250.73 17.72 246.88C15.75 243.03 21.88 238.03 21.88 238.03C21.88 238.03 13.78 242.03 10.42 239.08C7.06 236.13 0 215.73 0 215.73C0 215.73 18.71 222.38 30.38 235.87C42.05 249.36 48.29 268.37 48.29 268.37Z" fill="#EBEBEB"/>
<path d="M32.7603 249.59C30.9208 249.462 29.0738 249.689 27.3203 250.26C27.3203 250.26 27.3203 250.35 27.3203 250.34C29.1092 250.033 30.9165 249.846 32.7303 249.78C32.8603 249.78 32.8903 249.6 32.7603 249.59Z" fill="white"/>
<path d="M16.4418 228.19C15.6027 228.122 14.7582 228.169 13.9318 228.33C13.8418 228.33 13.8718 228.49 13.9318 228.48C14.7618 228.39 15.5718 228.42 16.3918 228.4C16.4173 228.401 16.4423 228.393 16.4627 228.378C16.483 228.363 16.4973 228.341 16.5032 228.316C16.5091 228.291 16.5062 228.265 16.495 228.242C16.4838 228.219 16.465 228.201 16.4418 228.19Z" fill="white"/>
<path d="M72.4175 326.45H30.1875L36.2075 282.34L37.7475 271.03H64.8575L66.3975 282.34L72.4175 326.45Z" fill="#DBDBDB"/>
<path d="M66.4009 282.34H36.2109L37.7509 271.03H64.8609L66.4009 282.34Z" fill="#C7C7C7"/>
<path d="M68.7272 267.11H33.8672V276.69H68.7272V267.11Z" fill="#DBDBDB"/>
<path d="M3.33594 326.45L79.3459 326.2L155.356 326.12L307.376 325.95L459.396 326.11L535.406 326.2L611.416 326.45L535.406 326.69L459.396 326.78L307.376 326.94L155.356 326.78L79.3459 326.69L3.33594 326.45Z" fill="#263238"/>
<path d="M309.381 400.98C467.743 400.98 596.121 386.913 596.121 369.56C596.121 352.207 467.743 338.14 309.381 338.14C151.019 338.14 22.6406 352.207 22.6406 369.56C22.6406 386.913 151.019 400.98 309.381 400.98Z" fill="#EBEBEB"/>
<path d="M242.633 364.36C240.303 365.15 173.493 365.36 170.933 363.78C169.933 363.18 169.363 353.45 168.933 341.67C168.843 339.13 168.773 336.5 168.713 333.84L163.383 298.2L208.053 297.91L212.263 333.56L212.093 341.4C212.093 341.4 237.713 352.75 240.333 354.81C242.953 356.87 244.963 363.57 242.633 364.36Z" fill="#EB9481"/>
<path d="M242.63 364.36C240.3 365.15 173.49 365.36 170.93 363.78C169.75 363.04 169.11 348.83 168.75 333.84L212.21 333.56L212.04 341.4C212.04 341.4 237.66 352.75 240.28 354.81C242.9 356.87 244.96 363.57 242.63 364.36Z" fill="white"/>
<path d="M242.63 364.36C240.3 365.15 173.49 365.36 170.93 363.78C169.93 363.18 169.36 353.45 168.93 341.67L212 341.4C212 341.4 237.62 352.75 240.24 354.81C242.86 356.87 244.96 363.57 242.63 364.36Z" fill="#A6A6A6"/>
<path d="M241.659 361.69C230.459 361.45 185.259 361.56 174.169 362.18C174.079 362.18 174.079 362.24 174.169 362.25C185.269 362.72 230.469 362.25 241.659 361.87C241.899 361.86 241.899 361.69 241.659 361.69Z" fill="#263238"/>
<path d="M235.967 352.42C234.721 352.392 233.484 352.623 232.332 353.098C231.181 353.573 230.14 354.282 229.277 355.18C227.703 356.783 226.814 358.934 226.797 361.18C226.797 361.25 226.917 361.25 226.927 361.18C227.299 358.968 228.376 356.935 229.998 355.385C231.62 353.835 233.7 352.851 235.927 352.58C235.948 352.586 235.97 352.582 235.989 352.571C236.008 352.56 236.021 352.541 236.027 352.52C236.032 352.499 236.029 352.477 236.018 352.458C236.006 352.439 235.988 352.426 235.967 352.42Z" fill="#263238"/>
<path d="M216.375 342.5C211.895 342.45 206.705 344.05 203.925 347.73C203.825 347.87 204.025 348.02 204.155 347.95C208.07 345.884 212.193 344.242 216.455 343.05C216.521 343.032 216.578 342.991 216.616 342.933C216.653 342.876 216.668 342.807 216.659 342.74C216.649 342.672 216.615 342.61 216.562 342.566C216.51 342.522 216.444 342.499 216.375 342.5Z" fill="#263238"/>
<path d="M219.857 343.83C215.367 343.83 210.177 345.39 207.407 349.06C207.297 349.21 207.497 349.36 207.637 349.29C211.545 347.217 215.666 345.571 219.927 344.38C219.992 344.362 220.048 344.322 220.086 344.265C220.123 344.209 220.139 344.142 220.13 344.075C220.122 344.008 220.09 343.946 220.039 343.901C219.989 343.856 219.924 343.831 219.857 343.83Z" fill="#263238"/>
<path d="M223.321 345.17C218.841 345.17 213.651 346.72 210.871 350.4C210.771 350.54 210.971 350.69 211.101 350.62C215.015 348.554 219.138 346.911 223.401 345.72C223.467 345.702 223.524 345.66 223.561 345.603C223.599 345.546 223.614 345.477 223.604 345.41C223.594 345.342 223.56 345.28 223.508 345.236C223.456 345.192 223.389 345.169 223.321 345.17Z" fill="#263238"/>
<path d="M226.785 346.51C222.295 346.46 217.106 348.06 214.336 351.74C214.226 351.88 214.435 352.03 214.565 351.96C218.479 349.892 222.602 348.25 226.865 347.06C226.931 347.042 226.988 347 227.026 346.943C227.063 346.886 227.078 346.817 227.069 346.75C227.059 346.682 227.025 346.62 226.972 346.576C226.92 346.532 226.854 346.508 226.785 346.51Z" fill="#263238"/>
<path d="M176.992 351.53C171.992 351.53 171.992 359.38 176.992 359.35C181.992 359.32 182.032 351.5 176.992 351.53Z" fill="#263238"/>
<path d="M221.192 330.52C218.922 328.64 216.062 330.52 214.672 332.45C212.358 335.861 210.979 339.82 210.672 343.93C210.672 344.02 210.742 344.06 210.812 344.06C210.83 344.145 210.867 344.224 210.922 344.291C210.977 344.358 211.047 344.411 211.126 344.445C211.206 344.479 211.292 344.494 211.378 344.488C211.465 344.482 211.548 344.455 211.622 344.41C214.802 342.2 218.482 340.22 220.892 337.09C222.262 335.27 223.382 332.27 221.192 330.52ZM215.732 340.06C214.192 341.19 212.602 342.24 211.102 343.43C211.902 341.19 212.592 338.93 213.612 336.77C214.083 335.735 214.624 334.732 215.232 333.77C216.232 332.28 220.592 328.52 221.052 333.39C221.312 336.06 217.562 338.72 215.732 340.06Z" fill="#263238"/>
<path d="M199.512 345.63C203.412 346.21 207.442 345.09 211.272 344.48C211.355 344.458 211.432 344.417 211.497 344.361C211.561 344.304 211.611 344.233 211.644 344.153C211.676 344.073 211.689 343.987 211.681 343.902C211.674 343.816 211.647 343.733 211.602 343.66C211.617 343.649 211.628 343.634 211.636 343.618C211.644 343.601 211.649 343.583 211.649 343.565C211.649 343.547 211.644 343.528 211.636 343.512C211.628 343.496 211.617 343.481 211.602 343.47C208.525 340.725 204.779 338.839 200.742 338C198.382 337.55 195.042 338.2 194.742 341.13C194.382 343.89 197.232 345.27 199.512 345.63ZM196.792 343.09C193.792 339.25 199.522 338.92 201.242 339.32C202.358 339.599 203.454 339.953 204.522 340.38C206.709 341.287 208.849 342.305 210.932 343.43C209.032 343.62 207.162 343.96 205.272 344.22C203.012 344.52 198.472 345.2 196.792 343.09Z" fill="#263238"/>
<path d="M97.6953 133.47C97.6953 133.47 149.565 221.71 150.955 227.91C153.085 237.43 164.375 331.44 164.375 331.44L218.375 330.44C218.375 330.44 209.075 247.55 200.265 220.24C193.925 200.57 148.145 135.33 148.145 135.33L97.6953 133.47Z" fill="#37474F"/>
<path d="M213.471 322.2C205.721 322.14 178.251 321.83 167.931 322.79C167.851 322.79 167.861 322.93 167.931 322.94C171.481 323.45 205.711 322.66 213.461 322.41C213.478 322.416 213.495 322.418 213.512 322.416C213.529 322.413 213.545 322.407 213.56 322.398C213.574 322.388 213.586 322.376 213.594 322.361C213.603 322.346 213.608 322.329 213.609 322.312C213.609 322.294 213.606 322.277 213.599 322.261C213.592 322.246 213.582 322.232 213.568 322.221C213.555 322.21 213.539 322.203 213.522 322.199C213.505 322.195 213.488 322.196 213.471 322.2Z" fill="#263238"/>
<path d="M106.545 141.57C109.945 146.9 113.545 152.12 117.005 157.41C120.465 162.7 123.945 167.99 127.375 173.27C134.215 183.937 140.882 194.673 147.375 205.48C150.544 210.489 153.255 215.774 155.475 221.27C157.502 226.767 159.025 232.437 160.025 238.21C161.085 244 161.785 249.85 162.435 255.7C163.102 261.92 163.799 268.143 164.525 274.37C165.945 287.11 167.369 299.85 168.795 312.59C168.965 314.15 169.135 315.71 169.295 317.28C169.295 317.51 168.905 317.55 168.875 317.28C167.285 304.63 165.965 291.93 164.525 279.28C163.805 272.967 163.089 266.657 162.375 260.35C161.705 254.48 161.065 248.6 160.155 242.77C159.32 237.015 158.05 231.332 156.355 225.77C154.488 220.01 151.986 214.476 148.895 209.27C142.645 198.48 136.025 187.88 129.405 177.27C122.785 166.66 115.985 155.96 109.005 145.48C108.145 144.19 107.275 142.9 106.375 141.63C106.305 141.56 106.485 141.47 106.545 141.57Z" fill="#263238"/>
<path d="M114.699 369.56C112.239 369.41 48.6986 343.67 46.9386 341.23C46.8602 341.086 46.8255 340.923 46.8386 340.76C46.8386 338.57 51.2486 330.93 54.9286 320.89C55.1586 320.25 56.7986 317.27 59.0686 313.26C65.3786 302.27 76.3786 283.34 76.3786 283.34L117.909 299.84L98.0286 329.59L94.9386 336.79C94.9386 336.79 114.429 356.94 116.069 359.79C117.709 362.64 117.149 369.7 114.699 369.56Z" fill="#EB9481"/>
<path d="M114.699 369.56C112.239 369.41 48.6986 343.67 46.9386 341.23C46.8602 341.086 46.8255 340.923 46.8386 340.76C46.8386 338.57 51.2486 330.93 54.9286 320.89C55.1586 320.25 56.7986 317.27 59.0686 313.26L98.0686 329.59L94.9786 336.79C94.9786 336.79 114.469 356.94 116.109 359.79C117.749 362.64 117.149 369.7 114.699 369.56Z" fill="white"/>
<path d="M114.703 369.56C112.243 369.41 48.7027 343.67 46.9427 341.23C46.2627 340.3 49.1027 331.63 54.9427 320.89L94.9427 336.8C94.9427 336.8 114.433 356.93 116.083 359.8C117.733 362.67 117.153 369.7 114.703 369.56Z" fill="#A6A6A6"/>
<path d="M114.8 366.72C104.51 362.3 62.5696 345.44 52.0596 341.86C51.9696 341.86 51.9496 341.86 52.0596 341.92C62.1696 346.52 104.24 363.04 114.76 366.92C114.96 366.97 115.02 366.81 114.8 366.72Z" fill="#263238"/>
<path d="M112.999 355.99C111.858 355.489 110.625 355.23 109.379 355.23C108.132 355.23 106.9 355.489 105.759 355.99C103.707 356.888 102.081 358.543 101.219 360.61C101.219 360.67 101.309 360.72 101.339 360.66C102.518 358.743 104.286 357.259 106.379 356.432C108.472 355.604 110.777 355.477 112.949 356.07C112.966 356.065 112.98 356.055 112.989 356.04C112.998 356.025 113.002 356.007 112.999 355.99Z" fill="#263238"/>
<path d="M98.5705 339.45C94.4405 337.72 89.0205 337.26 85.0705 339.63C84.9205 339.72 85.0705 339.93 85.2005 339.92C89.6038 339.474 94.0421 339.497 98.4405 339.99C98.5082 339.998 98.5762 339.98 98.6319 339.941C98.6875 339.902 98.727 339.844 98.743 339.777C98.7589 339.711 98.7502 339.642 98.7184 339.581C98.6867 339.521 98.6341 339.475 98.5705 339.45Z" fill="#263238"/>
<path d="M101.281 341.99C97.1514 340.26 91.7314 339.8 87.7814 342.17C87.6314 342.26 87.7814 342.47 87.9114 342.46C92.3145 342.008 96.7534 342.032 101.151 342.53C101.219 342.537 101.287 342.52 101.343 342.48C101.399 342.441 101.438 342.383 101.454 342.317C101.47 342.251 101.461 342.181 101.429 342.121C101.398 342.061 101.345 342.014 101.281 341.99Z" fill="#263238"/>
<path d="M103.997 344.53C99.857 342.8 94.437 342.34 90.497 344.71C90.337 344.8 90.497 345.01 90.617 345C95.0201 344.548 99.459 344.572 103.857 345.07C103.926 345.081 103.997 345.067 104.056 345.029C104.114 344.99 104.157 344.932 104.174 344.864C104.192 344.796 104.183 344.724 104.151 344.662C104.118 344.601 104.063 344.553 103.997 344.53Z" fill="#263238"/>
<path d="M106.708 347.07C102.568 345.34 97.1579 344.88 93.2079 347.24C93.0479 347.34 93.2079 347.55 93.3279 347.54C97.731 347.088 102.17 347.112 106.568 347.61C106.637 347.621 106.708 347.607 106.767 347.569C106.825 347.53 106.868 347.472 106.885 347.404C106.903 347.336 106.894 347.264 106.862 347.202C106.829 347.141 106.774 347.093 106.708 347.07Z" fill="#263238"/>
<path d="M58.6564 333.04C53.9864 331.18 51.0864 338.45 55.7764 340.31C60.4664 342.17 63.3764 334.9 58.6564 333.04Z" fill="#263238"/>
<path d="M107.517 330.15C106.107 327.56 102.777 328.2 100.747 329.49C97.3272 331.781 94.5687 334.929 92.7468 338.62C92.7388 338.636 92.7346 338.654 92.7344 338.672C92.7342 338.69 92.7381 338.708 92.7458 338.725C92.7535 338.741 92.7648 338.755 92.7788 338.767C92.7929 338.778 92.8093 338.786 92.8268 338.79C92.8268 339.12 93.0468 339.51 93.4368 339.43C97.2268 338.56 101.377 338.11 104.777 336.11C106.727 334.95 108.847 332.6 107.517 330.15ZM98.8669 336.94C97.0169 337.41 95.1568 337.79 93.3268 338.33C94.8405 336.507 96.4459 334.761 98.1368 333.1C98.9693 332.308 99.8546 331.573 100.787 330.9C102.237 329.9 107.717 328.05 106.317 332.74C105.547 335.33 101.077 336.38 98.8669 336.94Z" fill="#263238"/>
<path d="M81.7509 336.02C85.1509 338.02 89.3009 338.49 93.0809 339.37C93.4709 339.46 93.7309 339.07 93.7009 338.73C93.7197 338.728 93.7376 338.721 93.753 338.71C93.7683 338.699 93.7806 338.685 93.7887 338.667C93.7967 338.65 93.8002 338.632 93.7989 338.613C93.7975 338.594 93.7913 338.576 93.7809 338.56C91.962 334.862 89.2032 331.706 85.7809 329.41C83.7809 328.11 80.4309 327.46 79.0109 330.04C77.5909 332.62 79.7609 334.85 81.7509 336.02ZM80.1909 332.64C78.8009 327.95 84.2709 329.81 85.7209 330.82C86.652 331.493 87.5342 332.232 88.3609 333.03C90.0486 334.694 91.6507 336.443 93.1609 338.27C91.3309 337.73 89.4709 337.34 87.6209 336.87C85.3809 336.27 80.9509 335.27 80.1909 332.64Z" fill="#263238"/>
<path d="M101.256 327.93L54.7656 309.16C54.7656 309.16 112.406 224.41 112.826 218.1C113.206 212.52 87.8856 163.9 86.8956 149.73C85.8156 134.43 93.1756 122.6 101.276 115.25L149.226 135.64C149.226 135.64 144.166 143.73 136.226 148.24C136.226 148.24 160.816 204.44 159.416 221.72C158.016 239 101.256 327.93 101.256 327.93Z" fill="#37474F"/>
<path d="M103.316 319.09C96.5965 316.2 98.5665 316.93 91.8065 314.09C88.5065 312.71 66.8065 303.68 63.4665 302.93C63.3965 302.93 63.3465 303.03 63.4165 303.07C66.3065 304.84 88.1865 313.49 91.5165 314.81C98.3265 317.49 96.3965 316.65 103.236 319.25C103.247 319.264 103.26 319.275 103.276 319.282C103.291 319.288 103.308 319.291 103.325 319.29C103.342 319.288 103.359 319.282 103.373 319.273C103.387 319.263 103.398 319.25 103.406 319.235C103.414 319.22 103.417 319.203 103.416 319.186C103.416 319.169 103.41 319.152 103.402 319.138C103.393 319.123 103.38 319.111 103.365 319.103C103.35 319.095 103.334 319.09 103.316 319.09Z" fill="#263238"/>
<path d="M144.094 147.21C139.102 148.374 134.218 149.959 129.494 151.95C129.475 151.957 129.458 151.967 129.442 151.98C129.427 151.994 129.415 152.01 129.406 152.028C129.397 152.046 129.392 152.066 129.391 152.086C129.39 152.106 129.393 152.126 129.399 152.145C129.406 152.164 129.416 152.182 129.429 152.197C129.443 152.212 129.459 152.224 129.477 152.233C129.495 152.242 129.515 152.247 129.535 152.248C129.555 152.249 129.575 152.247 129.594 152.24C134.494 150.81 139.474 149.47 144.294 147.78C144.664 147.65 144.474 147.13 144.094 147.21Z" fill="#263238"/>
<path d="M138.383 145.27C137.917 146.099 137.506 146.957 137.153 147.84C136.807 148.51 136.594 149.24 136.523 149.99C136.523 150.14 136.723 150.17 136.813 150.08C137.314 149.48 137.719 148.805 138.013 148.08C138.423 147.29 138.843 146.51 139.233 145.7C139.503 145.11 138.693 144.73 138.383 145.27Z" fill="#263238"/>
<path d="M138.98 140.73C139.28 139.99 139.57 139.26 139.88 138.52C140.19 137.78 140.58 137.02 140.88 136.24C140.88 136.12 141.12 136.24 141.07 136.33C140.77 137.07 140.58 137.85 140.35 138.61C140.12 139.37 139.86 140.13 139.61 140.89C139.14 142.3 138.61 143.7 137.96 145.07C138.747 145.109 139.533 144.973 140.26 144.67C141.003 144.194 141.575 143.494 141.89 142.67C142.31 141.85 142.7 141.01 143.13 140.19C143.66 139.303 144.105 138.369 144.46 137.4C144.46 137.28 144.7 137.4 144.65 137.49C143.998 139.54 143.144 141.519 142.1 143.4C141.65 144.13 141.3 144.9 140.48 145.18C139.593 145.428 138.664 145.493 137.75 145.37C137.63 145.37 137.49 145.37 137.53 145.19C137.94 143.68 138.424 142.192 138.98 140.73Z" fill="#263238"/>
<path d="M136.937 150.07C138.647 153.68 140.147 157.28 141.737 160.88C143.327 164.48 144.737 167.96 146.167 171.54C149.027 178.76 151.587 186.12 153.837 193.54C154.947 197.22 155.977 200.93 156.897 204.67C157.91 208.398 158.652 212.195 159.117 216.03C159.518 219.859 159.179 223.73 158.117 227.43C157.014 231.088 155.599 234.645 153.887 238.06C152.837 240.22 152.487 239.93 152.987 238.84C154.417 235.74 158.167 226.35 157.897 218.46C157.678 214.683 157.095 210.936 156.157 207.27C155.284 203.49 154.3 199.74 153.207 196.02C151.077 188.68 148.547 181.49 145.947 174.31C144.487 170.31 142.947 166.31 141.447 162.31C139.947 158.31 138.447 154.63 136.767 150.21C136.717 150.03 136.887 149.96 136.937 150.07Z" fill="#263238"/>
<path d="M101.652 138.14C102.482 137.83 103.652 138.34 104.492 138.48C105.58 138.665 106.679 138.775 107.782 138.81C108.873 138.849 109.966 138.812 111.052 138.7C112.146 138.672 113.218 138.388 114.182 137.87C115.764 136.718 117.12 135.284 118.182 133.64C119.448 131.961 120.493 130.126 121.292 128.18C121.292 128.06 121.502 128.18 121.462 128.26C121.112 129.37 120.852 130.49 120.462 131.58C120.031 132.604 119.516 133.591 118.922 134.53C117.959 136.42 116.536 138.037 114.782 139.23C112.852 140.33 110.372 140.23 108.222 140.14C106.975 140.067 105.735 139.904 104.512 139.65C103.632 139.46 102.152 139.32 101.592 138.55C101.566 138.521 101.546 138.486 101.535 138.448C101.524 138.41 101.521 138.37 101.526 138.331C101.532 138.292 101.546 138.255 101.568 138.222C101.59 138.189 101.619 138.161 101.652 138.14Z" fill="#263238"/>
<path d="M68.0385 300.27C75.6785 288.697 83.1785 277.03 90.5385 265.27C97.8985 253.51 105.159 241.66 112.319 229.72C114.029 226.87 115.999 224.03 117.099 220.87C118.299 217.44 117.619 214.11 116.539 210.75C114.499 204.62 112.115 198.611 109.399 192.75C106.719 186.84 103.829 181.03 100.989 175.2C98.1485 169.37 95.1785 163.61 92.9885 157.53C90.9885 151.72 90.1785 145.7 91.7385 139.68C93.2985 133.66 96.6585 128.34 100.169 123.33C101.089 122.01 102.039 120.7 102.969 119.33C103.039 119.23 103.189 119.33 103.119 119.45C99.2485 124.67 95.4785 130.2 93.2085 136.33C92.0483 139.352 91.3994 142.545 91.2885 145.78C91.2696 149.063 91.7794 152.329 92.7985 155.45C94.6785 161.53 97.6485 167.28 100.419 173C103.189 178.72 106.149 184.64 108.879 190.53C111.695 196.458 114.198 202.53 116.379 208.72C117.309 211.47 118.379 214.35 118.299 217.3C118.229 220.53 116.689 223.44 115.089 226.16C108.089 238.01 100.919 249.72 93.6185 261.36C86.3185 273 78.8085 284.64 71.2085 296.16L68.3285 300.51C68.1785 300.69 67.9185 300.48 68.0385 300.27Z" fill="#263238"/>
<path d="M151.885 81.7399C156.215 91.2399 178.085 104.33 188.325 105.74C195.685 106.74 218.065 107.1 225.735 105.93C234.735 104.55 227.855 80.2999 222.545 80.9299C207.945 82.6299 195.545 84.5299 191.645 84.5299C186.885 84.5299 161.135 76.2699 158.035 75.0999C150.435 72.2699 149.435 76.3499 151.885 81.7399Z" fill="#EB9481"/>
<path d="M152.031 84.2702C157.511 92.3802 175.721 105.64 175.721 105.64L178.251 100.04L186.621 81.5202C186.621 81.5202 169.891 76.2702 158.881 73.8702C157.585 73.5753 156.267 73.388 154.941 73.3102C147.911 72.9302 147.301 77.2702 152.031 84.2702Z" fill="Primary"/>
<path d="M152.031 84.2702C157.511 92.3802 175.721 105.64 175.721 105.64L178.251 100.04C171.461 92.1502 160.971 80.2002 154.941 73.3302C147.911 72.9302 147.301 77.2702 152.031 84.2702Z" fill="#263238"/>
<path d="M172.443 101.88C173.833 98.4699 180.013 84.7399 181.553 81.8799C181.653 81.6799 181.813 81.6999 181.723 81.8799C179.042 88.7078 175.991 95.3844 172.583 101.88C172.543 102 172.383 101.96 172.443 101.88Z" fill="#263238"/>
<path d="M219.867 81.1802C228.747 80.0202 239.737 78.0302 249.047 81.9802C250.093 82.3903 250.97 83.1406 251.537 84.1102C255.737 85.8102 256.197 88.3002 256.197 88.3002C259.627 91.0802 259.747 93.7002 259.747 93.7002C259.747 93.7002 264.667 95.7002 263.917 98.9202C263.097 102.48 256.357 98.9202 251.457 99.2102C240.207 99.9102 224.457 104.04 221.207 104.56L219.867 81.1802Z" fill="#EB9481"/>
<path d="M239.159 91.6599C242.449 91.4349 245.75 91.4349 249.039 91.6599C252.621 92.1094 256.165 92.8281 259.639 93.8099C259.662 93.8179 259.686 93.8166 259.708 93.8062C259.729 93.7959 259.746 93.7775 259.754 93.7549C259.762 93.7324 259.761 93.7076 259.75 93.686C259.74 93.6645 259.722 93.6479 259.699 93.6399C253.172 91.0791 246.067 90.3596 239.159 91.5599C238.999 91.5399 238.999 91.6699 239.159 91.6599Z" fill="#263238"/>
<path d="M237.072 81.2698C242.562 81.5498 245.992 82.4298 251.512 84.0898V84.0298C245.432 81.4898 242.942 81.2498 237.042 81.0298C236.852 81.1098 236.862 81.2698 237.072 81.2698Z" fill="#263238"/>
<path d="M237.961 100.91C236.531 101.58 236.881 102.33 239.611 102.96C242.341 103.59 253.691 103.78 253.291 107.74C252.891 111.7 236.881 111.2 232.411 109.8C227.941 108.4 221.211 104.56 221.211 104.56C224.381 104.03 231.821 102.02 237.961 100.91Z" fill="#EB9481"/>
<path d="M163.783 96.8799C163.713 98.5899 163.553 100.33 163.313 102.06C163.313 101.99 163.313 101.93 163.383 101.87C163.713 100.97 164.043 100.05 164.443 99.1799C164.443 99.1799 164.543 99.1799 164.533 99.1799C164.341 100.133 164.053 101.065 163.673 101.96C163.493 102.39 163.323 102.81 163.133 103.23C163.013 104 162.873 104.76 162.723 105.52C162.423 106.95 161.073 113.03 160.723 114.06C160.663 114.27 160.403 114.22 160.423 113.98C160.493 112.86 161.623 106.53 161.853 105.09C162.3 102.309 162.897 99.5554 163.643 96.8399C163.693 96.7899 163.793 96.8299 163.783 96.8799Z" fill="#263238"/>
<path d="M153.378 142.35C150.708 143.72 147.268 145.85 131.768 142.8C130.768 142.6 129.828 142.36 128.848 142.07C114.318 137.71 96.8484 120.62 95.8984 119.41C95.8984 119.41 118.988 81.9803 148.518 70.2103C152.168 68.7603 158.208 71.5603 161.518 75.0503C162.708 76.3003 165.298 85.4903 164.308 92.9303C163.318 100.37 156.038 140.98 153.378 142.35Z" fill="Primary"/>
<path d="M151.302 92.5898C151.413 94.1715 151.192 95.759 150.652 97.2498C150.525 95.6677 150.747 94.0769 151.302 92.5898Z" fill="white"/>
<path d="M141.226 118.08C141.29 118.867 141.263 119.659 141.146 120.44C141.05 121.227 140.859 121.999 140.576 122.74C140.507 121.95 140.534 121.154 140.656 120.37C140.758 119.588 140.95 118.819 141.226 118.08Z" fill="white"/>
<path d="M124.121 98.8101C124.235 100.392 124.013 101.98 123.471 103.47C123.347 101.888 123.568 100.298 124.121 98.8101Z" fill="white"/>
<path d="M157.89 116.78C157.954 117.571 157.927 118.366 157.81 119.15C157.714 119.937 157.523 120.709 157.24 121.45C157.171 120.66 157.198 119.864 157.32 119.08C157.421 118.294 157.613 117.523 157.89 116.78Z" fill="white"/>
<path d="M135.922 95.5098C136.709 95.4429 137.501 95.4664 138.282 95.5798C139.069 95.6796 139.841 95.8744 140.582 96.1598C139 96.2734 137.412 96.052 135.922 95.5098Z" fill="white"/>
<path d="M116.5 113.92C118.082 113.809 119.669 114.03 121.16 114.57C119.578 114.697 117.987 114.475 116.5 113.92Z" fill="white"/>
<path d="M139.383 133.85C140.965 133.737 142.553 133.958 144.043 134.5C142.461 134.625 140.87 134.403 139.383 133.85Z" fill="white"/>
<path d="M110.508 126.61C112.089 126.499 113.677 126.72 115.168 127.26C113.586 127.385 111.995 127.163 110.508 126.61Z" fill="white"/>
<path d="M151.148 74.6702C152.73 74.5587 154.318 74.7801 155.808 75.3202C154.227 75.4317 152.639 75.2102 151.148 74.6702Z" fill="white"/>
<path d="M145.501 81.0498C144.996 81.6575 144.418 82.2015 143.781 82.6698C143.162 83.149 142.491 83.5581 141.781 83.8898C142.284 83.286 142.854 82.7424 143.481 82.2698C144.107 81.7888 144.784 81.3796 145.501 81.0498Z" fill="white"/>
<path d="M114.707 99.1802C114.196 99.7826 113.615 100.323 112.977 100.79C112.364 101.278 111.692 101.688 110.977 102.01C111.492 101.41 112.072 100.87 112.707 100.4C113.322 99.914 113.994 99.5044 114.707 99.1802Z" fill="white"/>
<path d="M153.16 107.36C152.648 107.965 152.068 108.509 151.43 108.98C150.815 109.466 150.143 109.876 149.43 110.2C149.941 109.594 150.522 109.051 151.16 108.58C151.778 108.099 152.449 107.689 153.16 107.36Z" fill="white"/>
<path d="M128.261 123.04C127.75 123.646 127.169 124.189 126.531 124.66C125.915 125.145 125.244 125.554 124.531 125.88C125.043 125.274 125.623 124.731 126.261 124.26C126.88 123.779 127.55 123.369 128.261 123.04Z" fill="white"/>
<path d="M162.699 85.9399C162.187 86.5455 161.607 87.0892 160.969 87.5599C160.349 88.0391 159.678 88.4483 158.969 88.7799C159.48 88.1744 160.061 87.6307 160.699 87.1599C161.315 86.6752 161.986 86.2657 162.699 85.9399Z" fill="white"/>
<path d="M162.184 104.11C161.578 103.598 161.035 103.018 160.564 102.38C160.077 101.765 159.667 101.094 159.344 100.38C159.952 100.885 160.496 101.463 160.964 102.1C161.442 102.724 161.851 103.398 162.184 104.11Z" fill="white"/>
<path d="M106.684 116.63C106.078 116.118 105.535 115.538 105.064 114.9C104.583 114.282 104.173 113.611 103.844 112.9C104.449 113.411 104.993 113.992 105.464 114.63C105.949 115.246 106.358 115.917 106.684 116.63Z" fill="white"/>
<path d="M155.434 131.52C154.826 131.014 154.282 130.437 153.814 129.8C153.335 129.18 152.926 128.509 152.594 127.8C153.199 128.311 153.743 128.892 154.214 129.53C154.696 130.143 155.106 130.811 155.434 131.52Z" fill="white"/>
<path d="M130.996 89.0701C130.391 88.5621 129.847 87.9848 129.376 87.3501C128.899 86.7291 128.49 86.0585 128.156 85.3501C128.764 85.8556 129.308 86.4332 129.776 87.0701C130.253 87.6911 130.662 88.3616 130.996 89.0701Z" fill="white"/>
<path d="M131.434 140C130.828 139.488 130.285 138.908 129.814 138.27C129.334 137.651 128.925 136.98 128.594 136.27C129.202 136.776 129.746 137.353 130.214 137.99C130.695 138.612 131.104 139.286 131.434 140Z" fill="white"/>
<path d="M135.58 109.96C134.98 109.446 134.44 108.865 133.97 108.23C133.482 107.617 133.072 106.945 132.75 106.23C133.352 106.742 133.893 107.322 134.36 107.96C134.846 108.575 135.256 109.246 135.58 109.96Z" fill="white"/>
<path d="M156.112 85.0203C152.342 84.3203 148.802 76.5303 148.352 71.2903C148.352 70.9303 150.112 68.0803 152.122 64.5103C153.342 62.3403 154.632 59.8903 155.662 57.5703C155.872 57.1003 157.102 58.6903 157.102 58.6903L159.782 60.6903L168.632 67.4803C166.524 70.0091 164.734 72.7865 163.302 75.7503C163.16 76.0715 163.053 76.4066 162.982 76.7503C162.978 76.8069 162.978 76.8637 162.982 76.9203C162.432 78.9003 159.742 85.6903 156.112 85.0203Z" fill="#EB9481"/>
<path d="M162.981 76.7999C162.977 76.8565 162.977 76.9133 162.981 76.9699C162.455 76.8158 161.944 76.6185 161.451 76.3799C151.761 71.8399 156.031 58.8599 156.031 58.8599L159.831 60.7399L168.681 67.5299C166.573 70.0587 164.783 72.8361 163.351 75.7999C163.192 76.1191 163.068 76.4543 162.981 76.7999Z" fill="#263238"/>
<path d="M178.797 39.8501C178.797 39.8501 183.227 42.6601 183.247 47.6601C183.267 52.6601 181.247 57.5501 180.827 57.7301C180.407 57.9101 178.797 39.8501 178.797 39.8501Z" fill="#263238"/>
<path d="M156.817 42.45C154.157 47.7 154.297 64.25 157.617 68.51C162.437 74.69 171.717 76.82 177.327 70.71C182.757 64.79 182.197 43.23 178.327 39.21C172.697 33.27 160.757 34.68 156.817 42.45Z" fill="#EB9481"/>
<path d="M170.939 55.7002C170.939 55.7002 170.849 55.7602 170.859 55.8002C170.919 56.9302 170.799 58.2302 169.789 58.6302C169.789 58.6302 169.789 58.7002 169.789 58.6902C171.039 58.4902 171.179 56.7602 170.939 55.7002Z" fill="#263238"/>
<path d="M169.913 54.5499C168.093 54.4499 168.033 58.0899 169.723 58.1799C171.413 58.2699 171.433 54.6299 169.913 54.5499Z" fill="#263238"/>
<path d="M177.106 55.6602C177.106 55.6602 177.196 55.6602 177.196 55.7602C177.136 56.8902 177.266 58.1902 178.286 58.5802C178.286 58.5802 178.286 58.6502 178.286 58.6402C177.026 58.4502 176.876 56.7202 177.106 55.6602Z" fill="#263238"/>
<path d="M178.139 54.5C179.949 54.39 180.039 58.03 178.359 58.13C176.679 58.23 176.619 54.59 178.139 54.5Z" fill="#263238"/>
<path d="M168.767 51.7802C169.245 51.6442 169.716 51.484 170.177 51.3002C170.702 51.2051 171.181 50.9377 171.537 50.5402C171.624 50.3946 171.66 50.2247 171.64 50.0566C171.62 49.8884 171.545 49.7316 171.427 49.6102C171.157 49.4045 170.836 49.2747 170.498 49.2343C170.161 49.1938 169.819 49.2442 169.507 49.3802C168.832 49.5609 168.248 49.9847 167.867 50.5702C167.791 50.7095 167.757 50.8677 167.768 51.026C167.779 51.1843 167.835 51.3361 167.93 51.4635C168.024 51.5908 168.154 51.6884 168.302 51.7445C168.45 51.8006 168.612 51.813 168.767 51.7802Z" fill="#263238"/>
<path d="M179.378 53.3899C178.891 53.2812 178.41 53.1477 177.938 52.9899C177.411 52.9202 176.922 52.6775 176.548 52.2999C176.451 52.1609 176.405 51.9933 176.416 51.8245C176.426 51.6557 176.494 51.4955 176.608 51.3699C176.865 51.1494 177.178 51.0024 177.512 50.9444C177.847 50.8863 178.19 50.9193 178.508 51.0399C179.192 51.1817 179.798 51.574 180.208 52.1399C180.293 52.2739 180.338 52.4298 180.337 52.5888C180.335 52.7478 180.288 52.903 180.2 53.0354C180.112 53.1679 179.987 53.2719 179.841 53.3349C179.695 53.3978 179.534 53.417 179.378 53.3899Z" fill="#263238"/>
<path d="M168.376 66.3899C168.646 66.6599 168.906 67.0199 169.316 67.0599C169.737 67.0597 170.152 66.9711 170.536 66.7999C170.536 66.7999 170.606 66.7999 170.536 66.8599C170.372 67.0797 170.152 67.2508 169.898 67.3547C169.644 67.4586 169.367 67.4916 169.096 67.4499C168.868 67.3876 168.663 67.2597 168.506 67.0819C168.35 66.9042 168.249 66.6844 168.216 66.4499C168.208 66.4287 168.209 66.4052 168.219 66.3846C168.228 66.3639 168.245 66.3479 168.266 66.3399C168.288 66.332 168.311 66.3328 168.332 66.3421C168.352 66.3515 168.368 66.3687 168.376 66.3899Z" fill="#263238"/>
<path d="M174.918 61.57C174.918 61.57 174.968 63.25 174.918 64.04C173.382 63.877 171.83 63.9308 170.308 64.2C169.948 64.28 169.988 63.99 170.398 63.8C171.624 63.2398 172.989 63.0588 174.318 63.28C174.398 63.07 174.188 60.68 174.318 60.69C174.923 60.8088 175.509 61.0107 176.058 61.29C176.058 57.77 175.498 54.29 175.548 50.77C175.548 50.65 175.738 50.63 175.758 50.77C176.469 54.4937 176.804 58.2794 176.758 62.07C176.768 62.5 175.218 61.73 174.918 61.57Z" fill="#263238"/>
<path d="M172.669 63.44C172.27 64.4886 171.531 65.3726 170.569 65.95C169.059 66.56 168.569 65.19 170.089 63.95C170.886 63.5471 171.778 63.3707 172.669 63.44Z" fill="#263238"/>
<path d="M171.098 65.6403C170.938 65.7703 170.759 65.8748 170.568 65.9503C169.178 66.5103 168.628 65.4003 169.748 64.2803C170.508 64.3403 171.378 64.6203 171.098 65.6403Z" fill="#FF99BA"/>
<path d="M156.056 56.6C157.886 57.16 159.986 51.66 160.586 49.6C161.106 47.74 161.706 41.83 161.796 41.42C161.886 41.01 169.796 46.65 174.376 45.31C178.956 43.97 182.066 39.82 182.136 37.89C182.206 35.96 176.476 31.06 171.526 30.81C166.576 30.56 159.866 36.81 159.866 36.81C160.677 35.8902 161.413 34.9071 162.066 33.87C161.986 33.65 158.786 34.93 158.196 37.21C158.196 37.21 158.836 34.34 158.596 34.29C158.356 34.24 155.866 36.69 156.426 38.55C156.426 38.55 153.546 41.04 153.286 43.77C153.026 46.5 153.906 55.94 156.056 56.6Z" fill="#263238"/>
<path d="M177.659 44.2701C176.297 45.0086 174.83 45.5346 173.309 45.8301C171.602 45.9823 169.884 45.7074 168.309 45.0301C166.723 44.4173 165.25 43.5455 163.949 42.4501C162.799 41.5101 161.769 40.3601 160.539 39.5201C160.229 39.3001 159.879 39.7501 160.069 40.0301C162.122 42.9286 165.053 45.0887 168.429 46.1901C169.998 46.7013 171.672 46.7969 173.288 46.4673C174.904 46.1378 176.407 45.3945 177.649 44.3101C177.649 44.3101 177.679 44.2701 177.659 44.2701Z" fill="#263238"/>
<path d="M157.971 56.1098C157.971 56.1098 155.131 50.3498 152.571 51.2798C150.011 52.2098 151.571 60.1798 154.201 61.6398C154.523 61.8483 154.884 61.9895 155.262 62.055C155.64 62.1206 156.028 62.1092 156.401 62.0214C156.775 61.9336 157.127 61.7713 157.436 61.5442C157.745 61.3171 158.005 61.0299 158.201 60.6998L157.971 56.1098Z" fill="#EB9481"/>
<path d="M153.081 53.5498C153.081 53.5498 153.021 53.5498 153.081 53.6298C154.901 54.7098 155.641 56.6298 156.081 58.6298C155.999 58.4181 155.871 58.2269 155.707 58.0694C155.543 57.912 155.346 57.792 155.132 57.7178C154.917 57.6436 154.688 57.617 154.462 57.6398C154.236 57.6626 154.017 57.7343 153.821 57.8498C153.761 57.8498 153.821 57.9598 153.821 57.9598C154.179 57.9042 154.545 57.9609 154.869 58.122C155.194 58.2832 155.46 58.541 155.631 58.8598C155.918 59.3938 156.146 59.957 156.311 60.5398C156.371 60.7298 156.701 60.6798 156.671 60.4698C157.101 57.9798 155.701 54.2098 153.081 53.5498Z" fill="#263238"/>
<path d="M139.217 81.8302C137.217 93.1602 149.497 131.33 157.367 138.46C169.077 149.06 190.727 156.03 198.577 158.3C201.997 159.3 211.457 135.23 207.997 133.64C200.587 130.27 177.567 123.07 175.377 121.27C173.187 119.47 159.987 100.4 154.107 89.4202C146.237 74.6402 140.207 76.1002 139.217 81.8302Z" fill="#EB9481"/>
<path d="M202.169 131.52C202.169 131.52 212.389 134.13 218.979 136.14C222.659 137.27 228.799 139.76 231.129 141.82C234.609 144.91 247.189 160.03 243.589 163.16C240.329 166 231.169 151.63 231.169 151.63C231.169 151.63 241.689 165.31 237.169 168C232.649 170.69 224.379 153.08 224.379 153.08C224.379 153.08 234.869 167.38 229.739 169.41C225.859 170.94 217.539 155.41 217.539 155.41C217.539 155.41 226.479 167.76 222.539 169.51C218.199 171.45 209.629 157.59 209.629 157.59C198.909 160.36 192.629 157.29 188.499 154.59C187.529 153.93 202.169 131.52 202.169 131.52Z" fill="#EB9481"/>
<path d="M227.834 146.66C229.134 148.22 230.454 149.8 231.604 151.47C232.754 153.14 233.844 154.86 234.834 156.63C236.175 158.92 237.249 161.355 238.034 163.89C236.314 159.49 232.284 153.44 231.134 151.77C229.984 150.1 228.914 148.37 227.774 146.7C227.744 146.66 227.804 146.62 227.834 146.66Z" fill="#263238"/>
<path d="M221.715 150.71C223.935 152.47 228.585 159.01 230.375 163.4C230.455 163.58 230.375 163.57 230.245 163.4C228.845 161.23 223.166 152.83 221.666 150.74C221.636 150.71 221.685 150.68 221.715 150.71Z" fill="#263238"/>
<path d="M215.846 153.27C218.605 156.163 220.784 159.558 222.266 163.27C222.336 163.45 222.196 163.42 222.086 163.27C220.016 159.9 218.416 157.27 215.736 153.36C215.696 153.27 215.786 153.18 215.846 153.27Z" fill="#263238"/>
<path d="M150.378 82.6599C141.248 69.7499 135.788 74.5299 137.618 88.5499C139.338 101.66 143.928 117.28 143.928 117.28L166.928 106.12C166.928 106.12 156.188 90.9299 150.378 82.6599Z" fill="Primary"/>
<path d="M155.928 87.7402C156.231 88.4694 156.449 89.2311 156.578 90.0102C156.718 90.7919 156.769 91.5871 156.728 92.3802C156.428 91.6473 156.213 90.8822 156.088 90.1002C155.939 89.323 155.886 88.5305 155.928 87.7402Z" fill="white"/>
<path d="M142.297 95.59C143.765 94.993 145.344 94.7201 146.927 94.79C146.197 95.0899 145.436 95.3046 144.657 95.43C143.879 95.5784 143.087 95.6322 142.297 95.59Z" fill="white"/>
<path d="M142.89 75.5103C142.27 76.9717 141.347 78.2842 140.18 79.3602C140.799 77.8988 141.723 76.5863 142.89 75.5103Z" fill="white"/>
<path d="M162.382 101.62C162.078 102.351 161.693 103.046 161.232 103.69C160.783 104.342 160.26 104.94 159.672 105.47C160.291 104.009 161.215 102.696 162.382 101.62Z" fill="white"/>
<path d="M146.381 109.45C145.648 109.15 144.953 108.764 144.311 108.3C143.659 107.852 143.061 107.328 142.531 106.74C143.262 107.046 143.956 107.431 144.601 107.89C145.254 108.339 145.851 108.862 146.381 109.45Z" fill="white"/>
<path d="M153.383 86.5498C154.613 88.2398 155.883 89.8898 157.143 91.5498C156.823 90.7098 156.543 89.8598 156.303 88.9998H156.363C156.613 89.6598 156.903 90.3098 157.143 90.9998L157.503 91.9998C157.534 92.0681 157.56 92.1382 157.583 92.2098C158.583 93.4998 159.583 94.7898 160.503 96.1098C161.633 97.6898 162.723 99.2898 163.823 100.89C164.923 102.49 166.033 104.48 167.223 106.09C167.333 106.23 165.223 107.09 164.993 107.2C164.763 107.31 164.643 107.12 164.863 107.05C165.083 106.98 166.763 105.95 166.783 105.93C165.683 104.31 164.412 102.82 163.262 101.25C162.112 99.6798 160.973 98.1098 159.863 96.5198C157.613 93.2798 155.553 89.9198 153.312 86.6698L153.383 86.5498Z" fill="#263238"/>
<path d="M138.162 97.8302C138.512 98.5102 138.892 99.1802 139.162 99.8802L139.542 100.75C139.012 98.2602 138.542 95.7503 137.992 93.2603C139.052 97.2603 140.122 101.35 141.102 105.41C142.032 109.29 143.162 113.21 143.702 117.17C144.4 116.864 145.122 116.62 145.862 116.44C145.12 116.921 144.32 117.307 143.482 117.59C142.277 113.563 141.276 109.478 140.482 105.35C140.232 104.23 140.002 103.11 139.762 101.99C139.502 101.31 139.192 100.66 138.882 99.9902C138.572 99.3202 138.292 98.5702 138.012 97.8602C138.072 97.8202 138.142 97.7802 138.162 97.8302Z" fill="#263238"/>
<path d="M144.266 113.42C147.466 111.62 160.836 104.7 163.826 103.42C164.036 103.33 164.146 103.42 163.936 103.56C157.59 107.248 151.047 110.586 144.336 113.56C144.256 113.58 144.176 113.47 144.266 113.42Z" fill="#263238"/>
<path d="M510.703 376.32H206.023L250.073 126.47H554.753L510.703 376.32Z" fill="Primary"/>
<path d="M354.35 100.59H254.64L250.07 126.47H356.79L354.35 100.59Z" fill="Primary"/>
<g opacity="0.1">
<path d="M510.703 376.32H206.023L250.073 126.47H554.753L510.703 376.32Z" fill="black"/>
<path d="M354.35 100.59H254.64L250.07 126.47H356.79L354.35 100.59Z" fill="black"/>
</g>
<path d="M243.883 111.15C243.216 108.288 243.216 105.311 243.883 102.45C244.55 105.311 244.55 108.288 243.883 111.15Z" fill="#263238"/>
<path d="M235.016 113.71C233.998 112.654 233.121 111.471 232.406 110.19C231.657 108.936 231.069 107.592 230.656 106.19C231.677 107.24 232.555 108.42 233.266 109.7C234.014 110.959 234.602 112.306 235.016 113.71Z" fill="#263238"/>
<path d="M228.624 120.36C225.814 119.505 223.238 118.017 221.094 116.01C222.496 116.417 223.84 117.002 225.094 117.75C226.375 118.469 227.561 119.346 228.624 120.36Z" fill="#263238"/>
<path d="M226.38 129.32C223.518 129.987 220.541 129.987 217.68 129.32C220.541 128.653 223.518 128.653 226.38 129.32Z" fill="#263238"/>
<path d="M228.981 138.18C227.921 139.193 226.738 140.069 225.461 140.79C224.207 141.537 222.863 142.122 221.461 142.53C222.517 141.511 223.7 140.634 224.981 139.92C226.233 139.168 227.578 138.583 228.981 138.18Z" fill="#263238"/>
<path d="M235.623 144.57C234.771 147.384 233.283 149.964 231.273 152.11C231.68 150.706 232.268 149.362 233.023 148.11C233.735 146.824 234.609 145.635 235.623 144.57Z" fill="#263238"/>
<path d="M244.581 146.78C244.93 148.203 245.097 149.665 245.081 151.13C245.102 152.595 244.934 154.057 244.581 155.48C244.222 154.058 244.054 152.596 244.081 151.13C244.064 149.665 244.232 148.203 244.581 146.78Z" fill="#263238"/>
<path d="M253.438 144.27C254.457 145.326 255.334 146.509 256.048 147.79C256.8 149.042 257.385 150.387 257.788 151.79C255.778 149.644 254.289 147.064 253.438 144.25V144.27Z" fill="#263238"/>
<path d="M259.828 137.57C261.231 137.974 262.576 138.558 263.828 139.31C265.109 140.024 266.292 140.902 267.348 141.92C265.945 141.516 264.6 140.931 263.348 140.18C262.067 139.465 260.884 138.588 259.828 137.57Z" fill="#263238"/>
<path d="M262.039 128.61C264.904 127.943 267.884 127.943 270.749 128.61C267.884 129.276 264.904 129.276 262.039 128.61Z" fill="#263238"/>
<path d="M259.481 119.75C260.54 118.738 261.722 117.864 263.001 117.15C264.251 116.391 265.596 115.803 267.001 115.4C264.855 117.41 262.275 118.899 259.461 119.75H259.481Z" fill="#263238"/>
<path d="M252.828 113.36C253.24 111.959 253.824 110.616 254.568 109.36C255.283 108.079 256.16 106.896 257.178 105.84C256.774 107.243 256.189 108.588 255.438 109.84C254.724 111.121 253.846 112.304 252.828 113.36Z" fill="#263238"/>
<path d="M510.253 376.32H204.913L161.562 135.54H466.902L510.253 376.32Z" fill="Primary"/>
<path d="M267.37 282.73C274.378 282.73 280.06 277.048 280.06 270.04C280.06 263.031 274.378 257.35 267.37 257.35C260.361 257.35 254.68 263.031 254.68 270.04C254.68 277.048 260.361 282.73 267.37 282.73Z" fill="#263238"/>
<path d="M367.69 282.73C374.698 282.73 380.38 277.048 380.38 270.04C380.38 263.031 374.698 257.35 367.69 257.35C360.682 257.35 355 263.031 355 270.04C355 277.048 360.682 282.73 367.69 282.73Z" fill="#263238"/>
<path d="M335.758 284.76L335.058 283.43C334.998 283.31 328.438 271.19 315.248 271.19C303.248 271.19 300.248 282.6 300.168 283.09L299.808 284.54L296.898 283.84L297.248 282.38C297.248 282.24 300.828 268.19 315.248 268.19C330.248 268.19 337.418 281.47 337.718 282.04L338.418 283.36L335.758 284.76Z" fill="#263238"/>
<path d="M489.992 268.58C490.642 268.44 491.292 268.29 491.932 268.13" stroke="#263238" stroke-miterlimit="10"/>
<path d="M495.772 266.99C511.072 261.82 523.882 249.79 525.082 235.73C527.742 204.73 489.992 187.61 493.892 151.79C497.612 117.62 533.452 115.18 547.822 119.9C563.692 125.12 558.252 140.37 543.882 138.4C518.972 134.99 503.312 107.91 515.142 77.1899C523.982 54.2399 546.022 45.5799 554.972 42.9399" stroke="#263238" stroke-miterlimit="10" stroke-dasharray="4 4"/>
<path d="M556.898 42.41C558.128 42.09 558.838 41.96 558.838 41.96" stroke="#263238" stroke-miterlimit="10"/>
<path d="M574.698 36.4302C572.148 28.5302 555.068 31.3702 558.398 41.7002C561.728 52.0302 577.248 44.3402 574.698 36.4302Z" fill="#263238"/>
<path d="M549.112 33.2701C549.242 29.8001 554.062 27.1301 560.882 28.3601C567.702 29.5901 574.112 34.1901 574.112 34.1901C574.112 34.1901 567.382 38.2701 560.492 39.0201C553.602 39.7701 548.982 36.7301 549.112 33.2701Z" fill="#EBEBEB"/>
<path d="M574.106 34.1701C570.566 34.1701 567.036 34.0701 563.506 33.9601C559.976 33.8501 556.436 33.6701 552.906 33.3901C556.446 33.3901 559.986 33.4801 563.516 33.5901C567.046 33.7001 570.586 33.8801 574.106 34.1701Z" fill="#263238"/>
<path d="M555.961 30.1802C557.971 31.1416 559.866 32.3257 561.611 33.7102C560.605 33.2382 559.63 32.7039 558.691 32.1102C557.744 31.5206 556.833 30.8761 555.961 30.1802Z" fill="#263238"/>
<path d="M565.233 33.8398C563.424 35.3059 561.463 36.5732 559.383 37.6198C561.201 36.1519 563.173 34.8846 565.263 33.8398H565.233Z" fill="#263238"/>
<path d="M566.258 31.8901C567.267 32.3747 568.15 33.0866 568.838 33.9701C568.333 33.732 567.86 33.4331 567.428 33.0801C566.994 32.7294 566.601 32.3301 566.258 31.8901Z" fill="#263238"/>
<path d="M555.611 53.8202C557.741 56.5602 563.211 55.9002 568.021 50.9202C572.831 45.9402 575.381 38.4502 575.381 38.4502C575.381 38.4502 567.501 39.0502 561.491 42.4502C555.481 45.8502 553.471 51.0702 555.611 53.8202Z" fill="#EBEBEB"/>
<path d="M575.381 38.4502C572.501 40.4502 569.701 42.6702 566.891 44.8202C564.081 46.9702 561.331 49.1902 558.641 51.4802C561.521 49.4802 564.321 47.2702 567.121 45.1202C569.921 42.9702 572.651 40.7502 575.381 38.4502Z" fill="#263238"/>
<path d="M562.961 52.2699C563.496 51.2985 563.973 50.2968 564.391 49.2699C564.816 48.2401 565.177 47.1847 565.471 46.1099C564.935 47.0804 564.457 48.0822 564.041 49.1099C563.62 50.1412 563.259 51.1963 562.961 52.2699Z" fill="#263238"/>
<path d="M568.383 43.9099C566.043 43.7848 563.697 43.9089 561.383 44.2799C562.549 44.3499 563.717 44.3499 564.883 44.2799C566.056 44.2227 567.224 44.0992 568.383 43.9099Z" fill="#263238"/>
<path d="M570.312 44.8999C570.579 44.4061 570.788 43.8825 570.933 43.3399C571.081 42.8014 571.168 42.2479 571.193 41.6899C570.661 42.6799 570.359 43.7773 570.312 44.8999Z" fill="#263238"/>
<path d="M574.7 36.43C574.135 36.6134 573.529 36.6251 572.957 36.4635C572.386 36.302 571.875 35.9745 571.49 35.5226C571.105 35.0707 570.863 34.5146 570.794 33.9249C570.725 33.3351 570.832 32.7381 571.103 32.2096C571.374 31.681 571.795 31.2447 572.314 30.9557C572.832 30.6668 573.425 30.5383 574.017 30.5866C574.609 30.6348 575.173 30.8576 575.638 31.2267C576.103 31.5958 576.449 32.0946 576.63 32.66C576.873 33.4159 576.806 34.2371 576.444 34.9437C576.082 35.6504 575.455 36.1848 574.7 36.43Z" fill="#455A64"/>
<path d="M576.541 42.1399C575.976 42.3226 575.371 42.3338 574.8 42.1721C574.229 42.0104 573.719 41.6832 573.334 41.2317C572.949 40.7802 572.707 40.2247 572.638 39.6355C572.568 39.0463 572.676 38.4498 572.945 37.9214C573.215 37.3931 573.635 36.9566 574.153 36.6671C574.671 36.3776 575.263 36.2481 575.855 36.295C576.446 36.342 577.01 36.5632 577.476 36.9307C577.941 37.2983 578.288 37.7956 578.471 38.3599C578.592 38.7348 578.639 39.1301 578.608 39.523C578.577 39.9159 578.468 40.2988 578.289 40.6499C578.11 41.0009 577.863 41.3132 577.563 41.5689C577.263 41.8245 576.916 42.0186 576.541 42.1399Z" fill="#455A64"/>
<path d="M248.688 39.5898C248.209 44.1829 246.463 48.5526 243.645 52.2111C240.827 55.8696 237.047 58.6731 232.729 60.3087C228.41 61.9443 223.722 62.3477 219.187 61.4738C214.652 60.5999 210.45 58.4832 207.048 55.3598L194.578 57.1898L200.818 46.4098C199.391 42.9021 198.782 39.1155 199.038 35.3373C199.293 31.5592 200.407 27.889 202.293 24.6055C204.179 21.322 206.789 18.5115 209.924 16.3877C213.059 14.2638 216.637 12.8823 220.386 12.3482C224.135 11.8141 227.956 12.1414 231.56 13.3053C235.163 14.4691 238.454 16.4388 241.183 19.0649C243.911 21.691 246.005 24.9042 247.305 28.4607C248.606 32.0171 249.079 35.8232 248.688 39.5898Z" fill="white"/>
<path d="M248.691 39.5899C248.222 44.1807 246.492 48.5521 243.691 52.2199C242.323 54.075 240.673 55.7047 238.801 57.0499C236.97 58.4456 234.95 59.5736 232.801 60.3999C230.651 61.2467 228.392 61.7853 226.091 62C224.941 62.1032 223.785 62.1266 222.631 62.07C221.474 62.0402 220.32 61.9198 219.181 61.7099C214.585 60.8644 210.316 58.7556 206.851 55.6199L207.141 55.7099L194.691 57.6199L193.781 57.7599L194.241 56.9599L200.441 46.1599V46.5899C198.978 43.0176 198.356 39.1566 198.623 35.3055C198.89 31.4544 200.039 27.7162 201.981 24.3799C203.921 21.0541 206.587 18.2099 209.781 16.0599C212.97 13.9385 216.598 12.5666 220.392 12.047C224.187 11.5275 228.05 11.8738 231.691 13.0599C235.294 14.2857 238.578 16.3016 241.301 18.9599C244.019 21.6117 246.097 24.8476 247.377 28.4221C248.658 31.9966 249.107 35.8158 248.691 39.5899ZM248.691 39.5899C249.095 35.8344 248.631 32.0363 247.334 28.4887C246.037 24.9412 243.942 21.7391 241.211 19.1298C238.48 16.5205 235.186 14.5737 231.583 13.4398C227.98 12.3059 224.164 12.0151 220.431 12.5899C216.735 13.137 213.215 14.5261 210.141 16.6499C207.094 18.7905 204.549 21.568 202.681 24.7899C200.843 28.019 199.759 31.6224 199.511 35.3299C199.268 39.0626 199.869 42.802 201.271 46.2699L201.361 46.4899L201.241 46.6999L194.961 57.4599L194.521 56.7999L207.001 55.0499H207.171L207.291 55.1599C210.627 58.265 214.761 60.3805 219.231 61.2699C220.345 61.4969 221.475 61.634 222.611 61.68C223.747 61.7599 224.886 61.7599 226.021 61.68C228.298 61.4965 230.539 61.0019 232.681 60.2099C234.829 59.4282 236.85 58.3366 238.681 56.9699C240.545 55.6356 242.197 54.0274 243.581 52.1999C246.418 48.5499 248.187 44.1849 248.691 39.5899Z" fill="#263238"/>
<path d="M211.723 48.6201C211.704 48.289 211.753 47.9576 211.867 47.6462C211.981 47.3349 212.158 47.0504 212.387 46.8103C212.616 46.5703 212.892 46.3798 213.197 46.2508C213.503 46.1217 213.831 46.0568 214.163 46.0601C214.842 46.0601 215.493 46.3298 215.973 46.8099C216.453 47.29 216.723 47.9412 216.723 48.6201C216.723 49.2991 216.453 49.9502 215.973 50.4303C215.493 50.9104 214.842 51.1801 214.163 51.1801C213.831 51.1834 213.503 51.1185 213.197 50.9895C212.892 50.8604 212.616 50.6699 212.387 50.4299C212.158 50.1898 211.981 49.9053 211.867 49.594C211.753 49.2827 211.704 48.9512 211.723 48.6201ZM212.723 42.7101L212.143 22.8701H216.143L215.563 42.7101H212.723Z" fill="Primary"/>
<path d="M221.231 48.6201C221.211 48.2899 221.26 47.9593 221.374 47.6486C221.488 47.338 221.664 47.0539 221.891 46.814C222.119 46.5741 222.394 46.3834 222.698 46.2538C223.002 46.1241 223.33 46.0582 223.661 46.0601C224.34 46.0601 224.991 46.3298 225.471 46.8099C225.951 47.29 226.221 47.9412 226.221 48.6201C226.221 49.2991 225.951 49.9502 225.471 50.4303C224.991 50.9104 224.34 51.1801 223.661 51.1801C223.33 51.182 223.002 51.1161 222.698 50.9865C222.394 50.8568 222.119 50.6661 221.891 50.4262C221.664 50.1863 221.488 49.9023 221.374 49.5916C221.26 49.281 221.211 48.9503 221.231 48.6201ZM222.231 42.7101L221.681 22.8701H225.681L225.101 42.7101H222.231Z" fill="Primary"/>
<path d="M230.731 48.6201C230.711 48.289 230.76 47.9576 230.875 47.6462C230.989 47.3349 231.166 47.0504 231.395 46.8103C231.624 46.5703 231.899 46.3798 232.205 46.2508C232.51 46.1217 232.839 46.0568 233.171 46.0601C233.85 46.0601 234.501 46.3298 234.981 46.8099C235.461 47.29 235.731 47.9412 235.731 48.6201C235.731 49.2991 235.461 49.9502 234.981 50.4303C234.501 50.9104 233.85 51.1801 233.171 51.1801C232.839 51.1834 232.51 51.1185 232.205 50.9895C231.899 50.8604 231.624 50.6699 231.395 50.4299C231.166 50.1898 230.989 49.9053 230.875 49.594C230.76 49.2827 230.711 48.9512 230.731 48.6201ZM231.731 42.7101L231.151 22.8701H235.151L234.581 42.7101H231.731Z" fill="Primary"/>
</g>
<defs>
<clipPath id="clip0_924_84">
<rect width="612" height="401" fill="white"/>
</clipPath>
</defs>
</svg>
